<?xml version="1.0" encoding="utf-8"?>
<!-- Generator: Adobe Illustrator 24.1.2, SVG Export Plug-In . SVG Version: 6.00 Build 0)  -->
<svg version="1.1" id="Layer_1" xmlns="http://www.w3.org/2000/svg" xmlns:xlink="http://www.w3.org/1999/xlink" x="0px" y="0px"
	 viewBox="0 0 800 800" style="enable-background:new 0 0 800 800;" xml:space="preserve">
<style type="text/css">
	.st0{display:none;fill:#3D3DB4;}
	.st1{display:none;}
	.st2{display:inline;fill:#FFFFFF;}
	.st3{display:inline;fill:none;stroke:#3D3DB4;stroke-width:25;stroke-miterlimit:133.3333;}
	.st4{display:inline;fill:#FFFFFF;stroke:#3D3DB4;stroke-width:25;stroke-miterlimit:133.3333;}
	.st5{display:inline;}
	.st6{fill:#FF5C5C;stroke:#000000;stroke-width:25;stroke-linecap:round;stroke-linejoin:round;stroke-miterlimit:10;}
	.st7{fill:none;stroke:#000000;stroke-width:25;stroke-linecap:round;stroke-linejoin:round;stroke-miterlimit:10;}
	.st8{fill:#FFFFFF;stroke:#3D3DB4;stroke-width:25;stroke-miterlimit:133.3333;}
	.st9{fill:none;stroke:#3D3DB4;stroke-width:25;stroke-linecap:round;stroke-linejoin:round;stroke-miterlimit:10;}
	.st10{fill:#FFFFFF;stroke:#3D3DB4;stroke-width:25;stroke-linecap:round;stroke-linejoin:round;stroke-miterlimit:133.3333;}
	.st11{display:none;fill:#FF5C5C;}
</style>
<path class="st0" d="M760.6,775H39.4c-7.9,0-14.4-6.5-14.4-14.4V39.4C25,31.5,31.5,25,39.4,25h721.3c7.9,0,14.4,6.5,14.4,14.4v721.3
	C775,768.5,768.5,775,760.6,775z"/>
<g class="st1">
	<path class="st2" d="M201.4,409.9v248.2c0,54.8,88.9,99.3,198.6,99.3s198.6-44.5,198.6-99.3V409.9"/>
	<path class="st3" d="M598.6,534c0,54.8-88.9,99.3-198.6,99.3S201.4,588.8,201.4,534"/>
	<path class="st4" d="M598.6,409.9c0,54.8-88.9,99.3-198.6,99.3s-198.6-44.5-198.6-99.3s88.9-99.3,198.6-99.3
		S598.6,355.1,598.6,409.9z"/>
</g>
<g id="Layer_4" class="st1">
	<g class="st5">
		<path class="st6" d="M286,110c-9.7,14.6-27,19-38,31c-7,9-16,19-16,31c-15,15-16,40-9,59c1,2,0,4-1,6c-14,29-14,64,5,92
			c10,14,24,21,40,25c2,1,4,3,6,5c12,18,31.5,36.5,46,42s32.5,8.5,54.1-8.5c4.6,17.1,4.4,35,6.1,52.5h47.2
			c1.7-17.5,1.5-35.4,6.1-52.5c1.8,0.7,35.5,10.5,53.5,8.5c14-2,26-11,34-23c5-9,11-17,18-24c16-3,31-11,41-25c19-29,20-66,3-95
			c7-20,8-46-8-62c-6-25-54-60-56-62c-14-17-60.5-62.5-94.5-43.5c-11.3,6.3-18,18-18,18s-5-9-22-20S307.5,77.5,286,110z"/>
		<path class="st7" d="M450.9,335.8c13.4,18.4,37.8,28,60.2,26.6c6.3-0.4,12.5-1.6,18.3-3.9"/>
		<path class="st7" d="M573.7,230.5c-11.8-2-23.2,5.3-21.8,18.2c1.2,11.5,5.6,23.4-2,33.8c-19,26.1-53.6,8.8-78,22.9
			S431.5,345.5,412,329c-15.4-13-6-62-3.4-89.6"/>
		<path class="st7" d="M410.5,78.5c-7,18.7,3,88,3,88c5,10,27,21,38.5,1.5c5.1-8.7-0.5-32.5,11-41s23-3,28.2,6.9"/>
		<path class="st7" d="M408.9,168.3c-4.4,20.2-3.4,61.2,3.6,75.2s28,16,46.5,8.5s24-27,25-44c0-10,0-22,9-29c12-7,27-9,38,0
			c6,6,4,16,9.8,21.8"/>
		<path class="st7" d="M435.5,385.5c5.4-13.6,14.7-27.7,27-36.3"/>
		<path class="st7" d="M481.5,225.5c4,1.4,10,14,22.7,10.1"/>
		<path class="st7" d="M324.1,225.5c-4,1.4-10,14-22.7,10.1"/>
		<path class="st7" d="M354.7,335.8c-13.4,18.4-37.8,28-60.2,26.6c-6.3-0.4-12.5-1.6-18.3-3.9"/>
		<path class="st7" d="M231.9,230.5c11.8-2,23.2,5.3,21.8,18.2c-1.2,11.5-5.6,23.4,2,33.8c19,26.1,53.9,7.6,78,22.9
			c9.1,5.8,21,21.3,32.4,25.2c11.4,3.9,20.4,3.9,28.9-4.6s2-58,2.6-86.6"/>
		<path class="st7" d="M264.8,200.8c5.8-5.8,3.8-15.8,9.8-21.8c11-9,26-7,38,0c9,7,9,19,9,29c1,17,6.5,36.5,25,44s41.1,0.5,48.5-9.5
			s2.4-49.5,2.1-65.8"/>
		<path class="st7" d="M314.4,133.9c5.2-9.9,16.7-15.4,28.2-6.9s6.1,28.5,11,41s25.1,19.9,38,5.7c12.9-14.2,17.3-86.9,10.9-92.2"/>
		<path class="st7" d="M370.1,385.5c-5.4-13.6-14.7-27.7-27-36.3"/>
	</g>
</g>
<g>
	<path class="st8" d="M201.4,400.3v248.2c0,54.8,88.9,99.3,198.6,99.3s198.6-44.5,198.6-99.3V400.3"/>
	<path class="st9" d="M598.6,524.4c0,54.8-88.9,99.3-198.6,99.3s-198.6-44.5-198.6-99.3"/>
	<path class="st10" d="M598.6,400.3c0,54.8-88.9,99.3-198.6,99.3s-198.6-44.5-198.6-99.3S290.3,301,400,301S598.6,345.5,598.6,400.3
		z"/>
</g>
<g id="Layer_4_copy">
	<g>
		<path class="st6" d="M283,100.4c-9.7,14.6-27,19-38,31c-7,9-16,19-16,31c-15,15-16,40-9,59c1,2,0,4-1,6c-14,29-14,64,5,92
			c10,14,24,21,40,25c2,1,4,3,6,5c12,18,31.5,36.5,46,42s32.5,8.5,54.1-8.5c4.6,17.1,4.4,35,6.1,52.5h47.2
			c1.7-17.5,1.5-35.4,6.1-52.5c1.8,0.7,35.5,10.5,53.5,8.5c14-2,26-11,34-23c5-9,11-17,18-24c16-3,31-11,41-25c19-29,20-66,3-95
			c7-20,8-46-8-62c-6-25-54-60-56-62c-14-17-60.5-62.5-94.5-43.5c-11.3,6.3-18,18-18,18s-5-9-22-20S304.5,67.9,283,100.4z"/>
		<path class="st7" d="M447.9,326.2c13.4,18.4,37.8,28,60.2,26.6c6.3-0.4,12.5-1.6,18.3-3.9"/>
		<path class="st7" d="M570.6,220.9c-11.8-2-23.2,5.3-21.8,18.2c1.2,11.5,5.6,23.4-2,33.8c-19,26.1-53.6,8.8-78,22.9
			s-40.4,40.1-59.9,23.6c-15.4-13-6-62-3.4-89.6"/>
		<path class="st7" d="M407.5,68.9c-7,18.7,3,88,3,88c5,10,27,21,38.5,1.5c5.1-8.7-0.5-32.5,11-41s23-3,28.2,6.9"/>
		<path class="st7" d="M405.8,158.7c-4.4,20.2-3.4,61.2,3.6,75.2s28,16,46.5,8.5s24-27,25-44c0-10,0-22,9-29c12-7,27-9,38,0
			c6,6,4,16,9.8,21.8"/>
		<path class="st7" d="M429.5,382.9c5.4-13.6,17.7-34.7,30-43.3"/>
		<path class="st7" d="M478.5,215.9c4,1.4,10,14,22.7,10.1"/>
		<path class="st7" d="M321.1,215.9c-4,1.4-10,14-22.7,10.1"/>
		<path class="st7" d="M351.7,326.2c-13.4,18.4-37.8,28-60.2,26.6c-6.3-0.4-12.5-1.6-18.3-3.9"/>
		<path class="st7" d="M228.9,220.9c11.8-2,23.2,5.3,21.8,18.2c-1.2,11.5-5.6,23.4,2,33.8c19,26.1,53.9,7.6,78,22.9
			c9.1,5.8,21,21.3,32.4,25.2s20.4,3.9,28.9-4.6s2-58,2.6-86.6"/>
		<path class="st7" d="M261.8,191.2c5.8-5.8,3.8-15.8,9.8-21.8c11-9,26-7,38,0c9,7,9,19,9,29c1,17,6.5,36.5,25,44s41.1,0.5,48.5-9.5
			c7.4-10,2.4-49.5,2.1-65.8"/>
		<path class="st7" d="M311.4,124.3c5.2-9.9,16.7-15.4,28.2-6.9s6.1,28.5,11,41c4.9,12.5,25.1,19.9,38,5.7s17.3-86.9,10.9-92.2"/>
		<path class="st7" d="M369.5,380.9c-5.4-13.6-17.1-32.7-29.3-41.3"/>
	</g>
</g>
<path class="st11" d="M438,64.8c6.1,0,12.1,1.4,17.6,4.1c12.7,6.1,20.1,19.6,20.1,33.6v0.9c3.1-0.6,6.3-1,9.4-1
	c10.5,0,20.7,3.5,29.1,10c20.6,16.1,24.2,45.8,8.1,66.3c27.5,4.3,47.8,28.1,47.8,55.9c0,19.3-9.8,37.3-26.1,47.8
	c7.3,13.1,9.7,29.7,4,47.3c-7.3,22.7-29.7,37.1-53.5,37.1h-1c-4.5,22-23.9,37.8-46.3,37.8c-7.8,0-15-2-21.4-5.3
	c-5.5-2.9-8.8-8.8-8.8-15V82.2c-0.1-8,5.5-15,13.4-16.7C433,65,435.5,64.8,438,64.8 M362.2,64.8c2.5,0,5,0.2,7.5,0.7
	c7.8,1.7,13.4,8.7,13.4,16.7v302.4c0.1,6.2-3.3,12-8.8,15c-6.4,3.4-13.7,5.3-21.5,5.3c-22.5,0-41.8-15.8-46.3-37.8h-0.9
	c-23.8,0-46.2-14.5-53.5-37.1c-5.7-17.7-3.3-34.2,4-47.3c-15.7-10.2-26.1-27.8-26.1-47.8c0-27.9,20.3-51.6,47.8-55.9
	c-8.5-10.9-11.8-25-9.1-38.5c4.6-22.4,24.3-37.8,46.2-37.8c3.1,0,6.3,0.3,9.5,1v-0.9c0-14.1,7.4-27.6,20.1-33.6
	C350.1,66.2,356.1,64.8,362.2,64.8"/>
</svg>
