<?xml version="1.0" encoding="utf-8"?>
<!-- Generator: Adobe Illustrator 24.1.2, SVG Export Plug-In . SVG Version: 6.00 Build 0)  -->
<svg version="1.1" id="Layer_1" xmlns="http://www.w3.org/2000/svg" xmlns:xlink="http://www.w3.org/1999/xlink" x="0px" y="0px"
	 viewBox="0 0 800 800" style="enable-background:new 0 0 800 800;" xml:space="preserve">
<style type="text/css">
	.st0{fill:#3D3DB4;stroke:#FFFFFF;stroke-width:22;}
	.st1{fill:none;stroke:#FFFFFF;stroke-width:22;stroke-miterlimit:10;}
	.st2{fill:#FFFFFF;}
</style>
<path class="st0" d="M398.2,337.2c-130.3,0-235.9,52.9-235.9,118l0,0v147.4c0,65.1,105.6,118,235.9,118s235.9-52.9,235.9-118V455.2
	C634.1,390.2,528.5,337.2,398.2,337.2z"/>
<path class="st0" d="M162.3,455.2v147.4c0,65.1,105.6,118,235.9,118s235.9-52.9,235.9-118V455.2"/>
<path class="st1" d="M634.1,528.9c0,65.1-105.6,118-235.9,118s-235.9-52.9-235.9-118"/>
<path class="st0" d="M634.1,455.2c0,65.1-105.6,118-235.9,118s-235.9-52.9-235.9-118s105.6-118,235.9-118S634.1,390.2,634.1,455.2z"
	/>
<path class="st2" d="M489.7,447.3c0,26.1-42.3,47.3-94.5,47.3s-94.5-21.2-94.5-47.3c0-26.1,42.3-47.3,94.5-47.3
	S489.7,421.2,489.7,447.3z"/>
<path class="st0" d="M257.8,194.3v85.9c0,44.4,15.1,87,42.5,120.1c13.2,15.8,28.3,28.5,45,37.4c17.8,9.5,36.1,14.3,54.6,14.3
	s36.9-4.8,54.6-14.3c25.1-13.5,46.8-35.2,62.5-62.7c16.4-28.5,25-61.3,25-94.8v-87L257.8,194.3z"/>
<path class="st2" d="M401.4,418.2c-11.6,0-23.3-3.2-35-9.4c-18-9.6-34.4-26.2-46.1-46.7c-5.4-9.5-9.8-19.7-13-30.5
	c67.7-11.9,109.5-54.9,133.2-90c11.4,23.1,30.8,52,60.3,65.2c-3.5,27.8-14.7,54.3-31.7,74.8c-9.6,11.6-20.9,21-32.7,27.3
	C424.7,415,413,418.2,401.4,418.2z"/>
<path class="st0" d="M643.7,138.4L643.7,138.4L423.9,71.5c-8.2-2.5-16.8-3.8-25.7-3.8c-8.9,0-17.8,1.3-25.6,3.8l-219.6,67
	c-8.6,2.6-14.2,9.5-14.2,17.5s5.6,14.8,14.2,17.5l219.5,67c7.9,2.5,16.8,3.8,25.7,3.8c8.9,0,17.5-1.3,25.6-3.8l160.7-49v75.1
	c0,11.6,9.5,21.2,21.2,21.2s21.2-9.5,21.2-21.2v-88l16.6-5.1l0.3-0.1c8.4-2.8,13.9-9.7,13.9-17.5
	C657.6,148.1,652.2,141.2,643.7,138.4z"/>
<circle class="st0" cx="605.1" cy="331.7" r="24.8"/>
</svg>
