<?xml version="1.0" encoding="utf-8"?>
<!-- Generator: Adobe Illustrator 24.1.2, SVG Export Plug-In . SVG Version: 6.00 Build 0)  -->
<svg version="1.1" id="Layer_1" xmlns="http://www.w3.org/2000/svg" xmlns:xlink="http://www.w3.org/1999/xlink" x="0px" y="0px"
	 viewBox="0 0 800 800" style="enable-background:new 0 0 800 800;" xml:space="preserve">
<style type="text/css">
	.st1{fill:#FFFFFF;stroke:#3D3DB4;stroke-width:20;}
	.st2{fill:#3D3DB4;}
	.st3{fill:none;stroke:#3D3DB4;stroke-width:20;stroke-linecap:round;}
	.st4{display:none;}
	.st5{display:inline;}
	.st6{fill:url(#SVGID_1_);}
	.st7{display:inline;fill:none;stroke:#3D3DB4;stroke-width:20;stroke-linecap:round;stroke-miterlimit:10;}
	.st8{fill:#FFFFFF;stroke:#3D3DB4;stroke-width:22;}
	.st9{fill:none;stroke:#3D3DB4;stroke-width:22;stroke-linecap:round;}
	.st10{fill:none;stroke:#3D3DB4;stroke-width:20;stroke-linecap:round;stroke-linejoin:round;stroke-miterlimit:10;}
	.st11{fill:none;stroke:#3D3DB4;stroke-width:35;stroke-linecap:round;stroke-linejoin:round;stroke-miterlimit:10;}
</style>
<path class="st0" d="M759.2,800H40.8C18.4,800,0,781.6,0,759.2V40.8C0,18.4,18.4,0,40.8,0h718.4C781.6,0,800,18.4,800,40.8v718.4
	C800,781.6,781.6,800,759.2,800z"/>
<g id="Old">
	<g id="Database_Outline">
		<path d="M399.9,394.4c-117,0-211.9,47.5-211.9,106l0,0v132.4c0,58.5,94.8,106,211.9,106s211.9-47.5,211.9-106V500.4
			C611.8,442,516.9,394.4,399.9,394.4z"/>
		<path class="st1" d="M611.8,500.4c0,58.5-94.8,106-211.9,106S188,558.9,188,500.4s94.8-106,211.9-106S611.8,442,611.8,500.4z"/>
		<path class="st2" d="M482.1,493.3c0,23.4-38,42.5-84.9,42.5s-84.9-19-84.9-42.5s38-42.5,84.9-42.5S482.1,469.9,482.1,493.3z"/>
		<path class="st3" d="M611.8,566.6c0,58.5-94.8,106-211.9,106S188,625,188,566.6"/>
	</g>
	<g id="Natural_brain" class="st4">
		<g class="st5">
			<linearGradient id="SVGID_1_" gradientUnits="userSpaceOnUse" x1="399.9478" y1="508.0269" x2="399.9478" y2="67.8192">
				<stop  offset="0" style="stop-color:#FFFFFF"/>
				<stop  offset="5.872645e-02" style="stop-color:#FFF3F3"/>
				<stop  offset="0.1639" style="stop-color:#FFD4D4"/>
				<stop  offset="0.3034" style="stop-color:#FFA2A2"/>
				<stop  offset="0.4702" style="stop-color:#FF5D5D"/>
				<stop  offset="0.4735" style="stop-color:#FF5C5C"/>
			</linearGradient>
			<path class="st6" d="M626.6,302.1c-0.6-21.1-6.6-38.3-16.3-47.8c4.3-9.7,5.9-21.2,4.4-32.6c-1.5-11.9-6.3-22.5-13.1-29.8
				c1.4-11.2-3.2-24.8-13.1-38c-10.6-14.2-28.3-28.2-46-31.1c-3.3-16.6-16.5-31.6-37.1-41.9c-14.4-7.3-31.3-11.6-47.4-12.3
				c-17.8-0.8-32.9,2.8-43.6,10.4c-6,4.2-10.9,10-14.6,16.8c-3.7-6.9-8.5-12.7-14.5-16.8c-21.3-14.9-60.2-14.9-90.5-0.1
				c-21.2,10.4-34.4,26-37.7,44.3c-19,3.8-37.7,19.7-48,34.2c-8.6,12.3-12.5,24.5-11,34.9c-14.4,17.2-17.7,42.8-8.4,62.9
				c-9.9,11-15.5,26.4-16.2,44.2c-0.9,29.5,11.9,60.8,33.6,81.7c11.2,10.9,26,15.7,37.6,17.8c9.5,19.8,32,32.7,45.1,38.8
				c15.9,7.4,36,13.1,52.7,13.1c2.7,0,5.3-0.2,7.7-0.4c4.3,17.8,10.1,31.1,17.6,40.4c9.2,11.4,21,17.2,35.2,17.2
				c32.2,0,43.7-26.8,50.3-57.7c2.3,0.3,4.8,0.4,7.4,0.4c15,0,33.8-4.8,51.4-13.7c12.8-6.5,34.6-20.1,43.1-41.2
				c13.6-2.6,26-7.3,36-13.7C618.5,364.9,627.4,329.4,626.6,302.1z"/>
		</g>
		<g class="st5">
			<path class="st2" d="M343.2,67.7c16.2,0,31.3,3.8,41.9,11.2c6,4.2,10.9,9.9,14.5,16.8c3.7-6.9,8.6-12.6,14.6-16.8
				c9.9-6.9,23.3-10.5,39-10.5c1.5,0,3.1,0,4.8,0.1c16.2,0.7,33,5.1,47.4,12.3c20.6,10.3,33.8,25.3,37.1,41.9
				c17.7,2.9,35.3,17,46,31.1c9.9,13.2,14.5,26.7,13.1,38c6.8,7.4,11.6,18,13.1,29.8c1.4,11.4-0.1,22.9-4.4,32.6
				c9.8,9.4,15.7,26.6,16.3,47.8c0.8,27.4-8.1,62.8-35.5,80c-10.1,6.4-22.5,11-36,13.7c-8.5,21.2-30.3,34.8-43.1,41.2
				c-17.6,8.9-36.3,13.7-51.4,13.7c-2.6,0-5-0.2-7.4-0.4c-6.6,30.9-18.1,57.7-50.3,57.7c-14.2,0-26-5.7-35.2-17.2
				c-7.5-9.4-13.3-22.6-17.6-40.4c-2.4,0.4-5,0.4-7.7,0.4c-16.6,0-36.8-5.8-52.7-13.1c-13.1-6.1-35.6-18.9-45.1-38.8
				c-11.7-2.1-26.4-6.8-37.6-17.8c-21.6-20.9-34.5-52.3-33.6-81.7c0.5-17.8,6.2-33.2,16.2-44.2c-9.3-20-6-45.7,8.4-62.9
				c-1.4-10.4,2.3-22.6,11-34.9c10.2-14.5,28.9-30.4,48-34.2c3.3-18.3,16.5-33.9,37.7-44.3C309.7,71.4,327.1,67.7,343.2,67.7
				 M343.2,54.2c-18.7,0-38.1,4.5-54.6,12.6c-21.7,10.7-36.6,26.6-42.8,45.4c-20.8,7.1-38.4,24-47.9,37.5
				c-9.2,13-13.8,26.2-13.7,38.5c-6.7,9.5-11,20.7-12.7,32.8c-1.4,11-0.5,21.9,2.7,32c-8.8,12.6-13.7,28.4-14.3,46.1
				c-1,33.1,13.5,68.3,37.7,91.9c9.8,9.4,22.9,16.3,38.2,20c12.6,20.3,35.1,33,48.2,39.1c18.5,8.6,39.2,13.8,55.9,14.4
				c4.5,14.5,10.1,26,17.2,34.9c11.7,14.5,27.5,22.3,45.7,22.3c19.2,0,34.6-7.6,45.6-22.7c6.4-8.7,11.3-19.8,15.3-34.6
				c16.7-0.6,36.3-6,54.2-15.1c12.8-6.5,34.8-20,46.4-41.6c12.6-3.1,24.2-7.9,33.9-14c14.9-9.3,26.6-24.2,33.8-42.7
				c5.7-14.8,8.5-32.2,8.1-49c-0.6-20.5-5.7-37.8-14.5-50.1c3-10,3.9-20.9,2.4-31.6c-1.6-12.4-6.1-23.8-12.8-32.7
				c-0.2-13.2-5.7-27.8-16.1-41.5c-9.9-13.2-26.7-28.2-46-34.3c-6.4-17.2-20.9-32.2-41.9-42.7c-16.1-8.1-34.8-12.9-52.9-13.7
				c-1.8-0.1-3.6-0.1-5.3-0.1c-18.5,0-34.6,4.5-46.7,13c-2.4,1.7-4.7,3.6-6.8,5.7c-2.2-2.1-4.4-4-6.8-5.7
				C380.3,59.1,362.7,54.2,343.2,54.2L343.2,54.2z"/>
		</g>
		<path class="st7" d="M250.3,391.5c12.6,35.4,81.5,58.3,106,49"/>
		<path class="st7" d="M549,388.6c-10.6,37.2-76.7,61.4-102,51.9"/>
		<path class="st7" d="M314.4,379.4c13.1,9.3,35.7,30.6,41.9,61.1c8.4,41.2,23.5,59.3,46.7,59.3c23.2,0,35.8-15,44-59.3
			c4.7-25.5,12.8-58.5,39.8-58.5"/>
		<path class="st7" d="M199.5,256.6c-29.2,25-21.8,84.8,13.1,118.6c9.7,9.4,23.6,14.5,37.7,16.3c22.6,2.9,47.3-2.6,64.1-11.8
			c10.3-5.7,17.7-12.8,19.7-20.2"/>
		<path class="st7" d="M294.5,155.8c5.6-10.5,17.8-16.4,30.1-7.4s6.6,30.4,11.8,43.7c5.2,13.3,31.3,20.7,45.1,5.6
			c8.4-9.2,19-39.9,18.3-67.8c-0.4-18.2-6.1-35.3-19.2-44.5c-33.2-23.4-114.1-3.6-116.3,44.8c-28.3,1-65.1,40.5-57.5,64.3
			c-14.8,14.8-19.8,42.2-7.2,62c31-12.1,19.2,14.7,30.1,47.1c11,32.6,62.8,26.7,75.4,31.4c12.7,4.8,17.3,16.3,29,24.2
			c10.7,7.3,22.5,12.1,34.3,7.6c24.7-9.4,30.7-70.6,12.2-95.5"/>
		<path class="st7" d="M309.8,251c-4.2,1.5-15.4,17.3-29,13.2"/>
		<path class="st7" d="M241.7,227.2c-2.1-9.7,3.2-18.5,9.6-25c11.8-9.6,30.7-7.8,41.4,1.6c10.7,9.4,10.2,27.2,17.1,47.2
			c4.9,14.4,12.5,24.8,19.2,30.6c19.4,17,43.9,0.5,51.7-10.1c7.8-10.7,6.6-56.9,0.8-73.8"/>
		<path class="st7" d="M599.9,256.6c25.8,14.2,27.9,92.9-13.1,118.6c-11,6.9-24.2,11.3-37.8,13.4c-24.9,3.9-44,2.2-62.2-6.5
			c-7.9-3.8-21.2-17.3-22.9-23.7"/>
		<path class="st7" d="M505,155.8c-5.6-10.5-17.8-16.4-30.1-7.4s-6.6,30.4-11.8,43.7c-5.2,13.3-31.3,20.7-45.1,5.6
			c-8.3-9.2-18.9-40-18.3-67.8c0.4-18.4,6-35.2,19.2-44.5c33.2-23.4,115.1,0.9,116.3,44.8c28.4-0.8,65.1,40.5,57.5,64.3
			c15,12.1,19.8,42.2,7.2,62c-31-12.1-14.5,16.7-30.1,47.1c-15.8,30.8-59.4,22.8-75.4,31.4c-8.1,4.3-18.6,15.2-30.4,23.3
			c-10.1,6.9-21.4,11.8-32.9,8.6c-26-7.1-31.6-65.1-12.2-95.5"/>
		<path class="st7" d="M489.7,251.5c4.2,1.5,15.7,16.9,29.3,12.8"/>
		<path class="st7" d="M558.1,227.2c2.1-9.7-3.2-18.5-9.6-25c-11.8-9.6-31.8-7.8-41.4,1.6c-9.6,9.4-10.4,27.6-17.3,47.7
			c-4.9,14.3-12.3,24.5-18.9,30.2c-19.8,17-43.9,0.5-51.7-10.1c-7.8-10.7-6.6-56.9-0.8-73.8"/>
	</g>
</g>
<g id="Database_1_">
	<path class="st8" d="M188,496.8v132.4c0,58.5,94.8,106,211.9,106s211.9-47.5,211.9-106V496.8"/>
	<path class="st9" d="M611.8,563c0,58.5-94.8,106-211.9,106S188,621.5,188,563"/>
	<path class="st8" d="M611.8,496.8c0,58.5-94.8,106-211.9,106S188,555.3,188,496.8s94.8-106,211.9-106S611.8,438.4,611.8,496.8z"/>
	<path class="st2" d="M482.1,489.7c0,23.4-38,42.5-84.9,42.5s-84.9-19-84.9-42.5c0-23.4,38-42.5,84.9-42.5S482.1,466.3,482.1,489.7z
		"/>
	<path class="st10" d="M383.2,558.3"/>
	<line class="st11" x1="632.4" y1="159.7" x2="632.4" y2="269.9"/>
	<circle class="st2" cx="632.4" cy="316.6" r="22.6"/>
</g>
<g id="Layer_2_1_">
	<path class="st2" d="M680.1,151.4c4.5-1.3,7.4-4.5,7.4-8.1c0-3.5-2.9-6.6-7.4-8.1L425.9,57.7c-8.2-2.5-17-3.8-26-3.8
		c-9,0-17.8,1.3-26,3.8l-254.2,77.6c-4.5,1.3-7.4,4.5-7.4,8.1c0,3.5,2.9,6.6,7.4,8.1l117.6,35.9v99.4c0,51.4,17.5,100.8,49.2,139
		c15.3,18.3,32.8,33,52.1,43.3c20.6,11,41.8,16.6,63.2,16.6s42.7-5.6,63.2-16.6c29.1-15.6,54.2-40.8,72.4-72.6
		c18.9-33,28.9-71,28.9-109.7V186.1L680.1,151.4z"/>
	<path class="st0" d="M407.1,450.1c-13.4,0-27-3.7-40.5-10.9c-20.8-11.1-39.8-30.4-53.3-54.1c-6.3-11-11.3-22.8-15.1-35.3
		C376.5,336,425,286.3,452.3,245.6c13.2,26.8,35.7,60.2,69.8,75.5c-4,32.2-17.1,62.9-36.7,86.6c-11.1,13.4-24.2,24.3-37.8,31.6
		C434.1,446.4,420.6,450.1,407.1,450.1z"/>
</g>
<g id="Layer_4">
</g>
</svg>
