<?xml version="1.0" encoding="utf-8"?>
<!-- Generator: Adobe Illustrator 24.1.2, SVG Export Plug-In . SVG Version: 6.00 Build 0)  -->
<svg version="1.1" xmlns="http://www.w3.org/2000/svg" xmlns:xlink="http://www.w3.org/1999/xlink" x="0px" y="0px"
	 viewBox="0 0 800 800" style="enable-background:new 0 0 800 800;" xml:space="preserve">
<style type="text/css">
	.st0{fill:#FFFFFF;}
	.st1{display:none;fill:#005524;}
	.st2{fill:#FFFFFF;stroke:#3D3DB4;stroke-width:20;}
	.st3{fill:#3D3DB4;}
	.st4{fill:none;stroke:#3D3DB4;stroke-width:20;stroke-linecap:round;}
	.st5{display:none;}
	.st6{display:inline;}
	.st7{fill:url(#SVGID_1_);}
	.st8{display:inline;fill:none;stroke:#3D3DB4;stroke-width:20;stroke-linecap:round;stroke-miterlimit:10;}
	.st9{fill:#FFFFFF;stroke:#3D3DB4;stroke-width:22;}
	.st10{fill:none;stroke:#3D3DB4;stroke-width:22;stroke-linecap:round;}
	.st11{fill:none;stroke:#3D3DB4;stroke-width:20;stroke-linecap:round;stroke-linejoin:round;stroke-miterlimit:10;}
	.st12{fill:none;stroke:#3D3DB4;stroke-width:35;stroke-linecap:round;stroke-linejoin:round;stroke-miterlimit:10;}
</style>
<g id="Layer_1">
	<g id="Bg">
		<path class="st0" d="M35,789c-13.2,0-24-10.8-24-24V35c0-13.2,10.8-24,24-24h730c13.2,0,24,10.8,24,24v730c0,13.2-10.8,24-24,24
			H35z"/>
	</g>
	<circle class="st1" cx="400" cy="400" r="400"/>
	<g id="Old">
		<g id="Database_Outline">
			<path d="M399.7,354.5c-114.9,0-208.1,46.7-208.1,104.1l0,0v130c0,57.4,93.1,104.1,208.1,104.1S607.8,646,607.8,588.6v-130
				C607.8,401.2,514.6,354.5,399.7,354.5z"/>
			<path class="st2" d="M607.8,458.5c0,57.4-93.1,104.1-208.1,104.1S191.7,516,191.7,458.5c0-57.4,93.1-104.1,208.1-104.1
				S607.8,401.2,607.8,458.5z"/>
			<path class="st3" d="M480.4,451.6c0,23-37.3,41.7-83.3,41.7s-83.3-18.7-83.3-41.7s37.3-41.7,83.3-41.7S480.4,428.6,480.4,451.6z"
				/>
			<path class="st4" d="M607.8,523.5c0,57.4-93.1,104.1-208.1,104.1S191.7,581,191.7,523.5"/>
		</g>
		<g id="Natural_brain" class="st5">
			<g class="st6">
				
					<linearGradient id="SVGID_1_" gradientUnits="userSpaceOnUse" x1="399.7586" y1="333.9572" x2="399.7586" y2="766.2743" gradientTransform="matrix(1 0 0 -1 0 800)">
					<stop  offset="0" style="stop-color:#FFFFFF"/>
					<stop  offset="5.872645e-02" style="stop-color:#FFF3F3"/>
					<stop  offset="0.1639" style="stop-color:#FFD4D4"/>
					<stop  offset="0.3034" style="stop-color:#FFA2A2"/>
					<stop  offset="0.4702" style="stop-color:#FF5D5D"/>
					<stop  offset="0.4735" style="stop-color:#FF5C5C"/>
				</linearGradient>
				<path class="st7" d="M622.3,263.8c-0.6-20.7-6.5-37.6-16.1-46.9c4.2-9.5,5.8-20.8,4.3-32c-1.5-11.7-6.2-22.1-12.9-29.3
					c1.4-11-3.2-24.3-12.9-37.3c-10.4-13.9-27.8-27.7-45.2-30.5c-3.3-16.3-16.2-31-36.4-41.2c-14.1-7.1-30.7-11.4-46.6-12.1
					c-17.5-0.8-32.3,2.7-42.9,10.2c-5.9,4.1-10.7,9.8-14.4,16.5c-3.6-6.8-8.4-12.4-14.3-16.5c-20.9-14.6-59.1-14.6-88.9-0.1
					c-20.8,10.2-33.8,25.5-37,43.5c-18.7,3.7-37,19.3-47.1,33.6c-8.5,12.1-12.3,24.1-10.8,34.3c-14.1,16.8-17.4,42.1-8.3,61.7
					c-9.7,10.8-15.3,25.9-15.9,43.4c-0.9,28.9,11.7,59.7,33,80.3c11,10.7,25.5,15.4,37,17.5c9.3,19.5,31.4,32.1,44.3,38.1
					c15.6,7.2,35.4,12.9,51.8,12.9c2.6,0,5.2-0.2,7.6-0.4c4.2,17.5,9.9,30.5,17.3,39.7c9,11.2,20.6,16.9,34.6,16.9
					c31.6,0,43-26.3,49.4-56.6c2.3,0.3,4.7,0.4,7.2,0.4c14.7,0,33.2-4.8,50.4-13.4c12.6-6.4,34-19.8,42.3-40.5
					c13.3-2.6,25.5-7.1,35.4-13.4C614.4,325.5,623.1,290.6,622.3,263.8z"/>
			</g>
			<g class="st6">
				<path class="st3" d="M344.1,33.6c15.9,0,30.7,3.7,41.2,11c5.9,4.1,10.7,9.7,14.3,16.5c3.6-6.8,8.5-12.3,14.4-16.5
					c9.7-6.8,22.8-10.3,38.3-10.3c1.5,0,3.1,0,4.7,0.1c15.9,0.7,32.5,5,46.6,12.1c20.2,10.1,33.2,24.9,36.4,41.2
					c17.4,2.8,34.7,16.7,45.2,30.5c9.7,13,14.3,26.2,12.9,37.3c6.7,7.2,11.4,17.6,12.9,29.3c1.4,11.2-0.1,22.5-4.3,32
					c9.6,9.3,15.4,26.1,16.1,46.9c0.8,26.9-7.9,61.7-34.8,78.6c-10,6.3-22,10.8-35.4,13.4c-8.4,20.8-29.7,34.1-42.3,40.5
					c-17.3,8.7-35.6,13.4-50.4,13.4c-2.6,0-4.9-0.2-7.2-0.4c-6.4,30.3-17.8,56.6-49.4,56.6c-13.9,0-25.6-5.6-34.6-16.9
					c-7.4-9.3-13.1-22.2-17.3-39.7c-2.4,0.4-4.9,0.4-7.6,0.4c-16.3,0-36.2-5.7-51.8-12.9c-12.9-6-34.9-18.6-44.3-38.1
					c-11.5-2-25.9-6.7-37-17.5c-21.3-20.6-33.9-51.3-33-80.3c0.5-17.5,6.1-32.6,15.9-43.4c-9.2-19.7-5.9-44.9,8.3-61.7
					c-1.4-10.2,2.3-22.2,10.8-34.3c10.1-14.3,28.4-29.9,47.1-33.6c3.3-18,16.2-33.3,37-43.5C311.2,37.2,328.2,33.6,344.1,33.6
					 M344.1,20.4c-18.3,0-37.4,4.4-53.6,12.3c-21.3,10.5-36,26.1-42.1,44.6c-20.5,7-37.7,23.5-47,36.8c-9,12.8-13.6,25.8-13.5,37.8
					c-6.6,9.3-10.8,20.3-12.4,32.2c-1.4,10.8-0.5,21.5,2.6,31.4c-8.6,12.3-13.5,27.9-14,45.2c-1,32.5,13.2,67.1,37,90.2
					c9.6,9.3,22.5,16,37.5,19.7c12.3,19.9,34.5,32.5,47.4,38.4c18.2,8.5,38.5,13.6,54.9,14.1c4.4,14.3,10,25.6,16.9,34.3
					c11.5,14.3,27,21.9,44.9,21.9c18.9,0,34-7.5,44.8-22.3c6.3-8.6,11.1-19.5,15-34c16.4-0.6,35.6-5.9,53.2-14.8
					c12.6-6.4,34.2-19.7,45.6-40.8c12.3-3.1,23.7-7.8,33.3-13.8c14.6-9.2,26.1-23.7,33.2-42c5.6-14.6,8.4-31.7,7.9-48.2
					c-0.6-20.1-5.6-37.1-14.3-49.2c2.9-9.8,3.8-20.6,2.4-31c-1.6-12.2-6-23.4-12.5-32.1c-0.2-13-5.6-27.3-15.8-40.7
					c-9.7-13-26.2-27.7-45.2-33.7c-6.3-16.9-20.6-31.7-41.1-42c-15.8-7.9-34.2-12.7-51.9-13.5c-1.8-0.1-3.5-0.1-5.2-0.1
					c-18.2,0-34,4.4-45.9,12.8c-2.4,1.7-4.6,3.5-6.7,5.6c-2.1-2-4.3-3.9-6.7-5.6C380.5,25.1,363.2,20.4,344.1,20.4L344.1,20.4z"/>
			</g>
			<path class="st8" d="M252.8,351.6c12.3,34.8,80.1,57.2,104.1,48.2"/>
			<path class="st8" d="M546.1,348.7c-10.4,36.5-75.3,60.3-100.2,51"/>
			<path class="st8" d="M315.7,339.7c12.9,9.1,35,30.1,41.1,60c8.2,40.5,23.1,58.2,45.9,58.2c22.8,0,35.2-14.7,43.2-58.2
				c4.6-25,12.6-57.4,39.1-57.4"/>
			<path class="st8" d="M202.9,219.1c-28.7,24.5-21.4,83.3,12.9,116.5c9.5,9.3,23.2,14.2,37,16c22.2,2.8,46.5-2.6,63-11.6
				c10.1-5.6,17.4-12.5,19.3-19.8"/>
			<path class="st8" d="M296.2,120.1c5.5-10.3,17.5-16.1,29.5-7.2c12.1,8.9,6.4,29.9,11.6,43c5.1,13.1,30.8,20.4,44.3,5.5
				c8.2-9,18.7-39.2,18-66.6c-0.4-17.9-6-34.7-18.9-43.7c-32.6-22.9-112-3.5-114.2,44c-27.8,1-63.9,39.8-56.4,63.2
				c-14.6,14.6-19.4,41.5-7.1,60.9c30.4-11.9,18.9,14.5,29.5,46.3c10.8,32,61.7,26.2,74.1,30.9c12.4,4.7,17,16,28.5,23.8
				c10.5,7.1,22.1,11.9,33.7,7.5c24.3-9.3,30.2-69.3,12-93.8"/>
			<path class="st8" d="M311.2,213.6c-4.1,1.5-15.2,17-28.5,13"/>
			<path class="st8" d="M244.4,190.2c-2-9.5,3.2-18.2,9.4-24.5c11.6-9.4,30.2-7.7,40.7,1.6c10.5,9.3,10.1,26.7,16.8,46.4
				c4.9,14.1,12.3,24.3,18.9,30.1c19.1,16.7,43.1,0.5,50.8-10c7.7-10.5,6.4-55.9,0.8-72.5"/>
			<path class="st8" d="M596.1,219.1c25.3,13.9,27.4,91.2-12.9,116.5c-10.8,6.8-23.8,11.1-37.1,13.1c-24.4,3.8-43.2,2.2-61.1-6.4
				c-7.8-3.7-20.8-17-22.5-23.3"/>
			<path class="st8" d="M502.9,120.1c-5.5-10.3-17.5-16.1-29.5-7.2c-12.1,8.9-6.4,29.9-11.6,43c-5.1,13.1-30.8,20.4-44.3,5.5
				c-8.1-9-18.5-39.2-18-66.6c0.4-18.1,5.9-34.6,18.9-43.7c32.6-22.9,113.1,0.9,114.2,44c27.9-0.8,63.9,39.8,56.4,63.2
				c14.7,11.9,19.4,41.5,7.1,60.9c-30.4-11.9-14.2,16.4-29.5,46.3c-15.5,30.3-58.3,22.4-74.1,30.9c-7.9,4.2-18.3,14.9-29.9,22.8
				c-10,6.8-21,11.6-32.3,8.5c-25.6-7-31-63.9-12-93.8"/>
			<path class="st8" d="M487.9,214.1c4.1,1.5,15.4,16.6,28.8,12.5"/>
			<path class="st8" d="M555,190.2c2-9.5-3.2-18.2-9.4-24.5c-11.6-9.4-31.2-7.7-40.7,1.6c-9.4,9.3-10.2,27.1-17,46.8
				c-4.9,14-12.1,24.1-18.6,29.6c-19.5,16.7-43.1,0.5-50.8-10c-7.7-10.5-6.4-55.9-0.8-72.5"/>
		</g>
	</g>
	<path class="st9" d="M191.7,455v130c0,57.4,93.1,104.1,208.1,104.1S607.8,642.4,607.8,585V455"/>
	<path class="st10" d="M607.8,520c0,57.4-93.1,104.1-208.1,104.1S191.7,577.4,191.7,520"/>
	<path class="st9" d="M607.8,455c0,57.4-93.1,104.1-208.1,104.1S191.7,512.4,191.7,455s93.1-104.1,208.1-104.1
		S607.8,397.7,607.8,455z"/>
	<path class="st3" d="M480.4,448.1c0,23-37.3,41.7-83.3,41.7s-83.3-18.7-83.3-41.7s37.3-41.7,83.3-41.7S480.4,425,480.4,448.1z"/>
	<path class="st11" d="M383.3,515.4"/>
	<line class="st12" x1="576.8" y1="203.8" x2="576.8" y2="287.7"/>
	<circle class="st3" cx="576.8" cy="323.3" r="17.2"/>
	<g id="Layer_2_1_">
		<path class="st3" d="M613.2,197.5c3.4-1.1,5.6-3.4,5.6-6.2c0-2.6-2.2-5-5.6-6.2l-193.7-59c-6.3-1.9-13-2.9-19.8-2.9
			s-13.6,1-19.8,2.9l-193.7,59.1c-3.4,1.1-5.6,3.4-5.6,6.2c0,2.6,2.2,5,5.6,6.2l89.6,27.3v75.8c0,39.2,13.3,76.7,37.5,105.9
			c11.6,13.9,25,25.1,39.7,33c15.7,8.4,31.8,12.6,48.2,12.6c16.3,0,32.5-4.2,48.2-12.6c22.1-11.9,41.3-31,55.1-55.3
			c14.5-25.1,22-54.1,22-83.6v-76.7L613.2,197.5z"/>
		<path class="st0" d="M405.2,425c-10.2,0-20.6-2.8-30.9-8.3c-15.9-8.5-30.3-23.1-40.7-41.2c-4.8-8.4-8.6-17.4-11.5-26.9
			c59.7-10.5,96.6-48.4,117.5-79.4c10.1,20.4,27.2,45.9,53.2,57.5c-3.1,24.5-13,47.9-28,66c-8.5,10.2-18.4,18.5-28.8,24.1
			C425.7,422.2,415.4,425,405.2,425z"/>
	</g>
	<g id="Layer_4">
	</g>
</g>
<g id="Layer_2">
</g>
</svg>
