<?xml version="1.0" encoding="utf-8"?>
<!-- Generator: Adobe Illustrator 24.1.2, SVG Export Plug-In . SVG Version: 6.00 Build 0)  -->
<svg version="1.1" xmlns="http://www.w3.org/2000/svg" xmlns:xlink="http://www.w3.org/1999/xlink" x="0px" y="0px"
	 viewBox="0 0 800 800" style="enable-background:new 0 0 800 800;" xml:space="preserve">
<style type="text/css">
	.st0{fill:#FFFFFF;}
	.st1{fill:#FFFFFF;stroke:#3D3DB4;stroke-width:22;}
	.st2{fill:none;stroke:#3D3DB4;stroke-width:22;stroke-linecap:round;}
	.st3{fill:#3D3DB4;}
	.st4{fill:none;stroke:#3D3DB4;stroke-width:35;stroke-linecap:round;stroke-linejoin:round;stroke-miterlimit:10;}
</style>
<g id="Outline">
	<g>
		<g>
			<path class="st0" d="M400,79.2c7.7,0,15.3,1.1,22.4,3.3L642,149.4c3.9,1.3,6.4,4,6.4,7c0,3.1-2.5,5.8-6.4,7l-24.2,7.4v94.9
				c0,9.7-7.8,17.5-17.5,17.5c-9.7,0-17.5-7.8-17.5-17.5v-84.2l-39,11.9v87c0,22.6-3.9,44.9-11.5,65.7c14,4.6,27.3,10,39.4,16.1
				c48.5,24.3,75.2,57.4,75.2,93.2v147.4c0,35.9-26.7,69-75.2,93.3c-46.1,23.1-107.1,35.8-171.7,35.8S274.3,719.1,228.3,696
				c-48.5-24.3-75.2-57.4-75.2-93.3V455.4c0-35.9,26.7-69,75.2-93.3c13-6.5,27.3-12.2,42.5-17c-7.3-20.5-11.1-42.4-11.1-64.7v-85.9
				l-101.6-31c-3.9-1.3-6.4-4-6.4-7c0-3.1,2.5-5.8,6.4-7l219.6-67C384.6,80.3,392.3,79.2,400,79.2 M400,64.2c-9.3,0-18.5,1.4-26.8,4
				l-219.5,67c-10.4,3.2-17,11.6-17,21.3c0,9.5,6.5,17.9,16.7,21.2l0.2,0.1l0.2,0.1l91,27.8v74.8c0,18.8,2.5,37.3,7.4,55.3
				c-10.7,3.9-21,8.3-30.5,13.1c-53.8,26.9-83.5,64.8-83.5,106.7v147.4c0,41.9,29.6,79.7,83.5,106.7
				c48.1,24.1,111.5,37.3,178.4,37.3c67,0,130.3-13.3,178.4-37.3c53.8-26.9,83.5-64.8,83.5-106.7V455.4c0-41.8-29.6-79.7-83.4-106.6
				c-8.6-4.3-17.8-8.3-27.4-11.9c5.2-18.3,7.8-37.2,7.8-56.4v-75.9l9-2.7v63.9c0,17.9,14.6,32.5,32.5,32.5s32.5-14.6,32.5-32.5
				v-83.8l13.6-4.2c10.3-3.2,17-11.6,17-21.3c0-9.5-6.5-17.9-16.7-21.2l-0.2-0.1l-0.2-0.1L426.8,68.2
				C418.3,65.5,409.3,64.2,400,64.2L400,64.2z"/>
		</g>
		<g>
			<path class="st0" d="M600.3,291.5c10.8,0,19.5,8.7,19.5,19.5c0,10.8-8.7,19.5-19.5,19.5s-19.5-8.7-19.5-19.5
				C580.8,300.2,589.5,291.5,600.3,291.5 M600.3,276.5c-19,0-34.5,15.5-34.5,34.5s15.5,34.5,34.5,34.5s34.5-15.5,34.5-34.5
				S619.3,276.5,600.3,276.5L600.3,276.5z"/>
		</g>
	</g>
</g>
<g id="Logo">
	<path class="st1" d="M164.1,455.4v147.4c0,65.1,105.6,118,235.9,118s235.9-52.9,235.9-118V455.4"/>
	<path class="st2" d="M635.9,529.1c0,65.1-105.6,118-235.9,118s-235.9-52.9-235.9-118"/>
	<path class="st1" d="M635.9,455.4c0,65.1-105.6,118-235.9,118s-235.9-52.9-235.9-118s105.6-118,235.9-118S635.9,390.4,635.9,455.4z
		"/>
	<path class="st3" d="M491.5,447.5c0,26.1-42.3,47.3-94.5,47.3s-94.5-21.2-94.5-47.3c0-26.1,42.3-47.3,94.5-47.3
		S491.5,421.4,491.5,447.5z"/>
	<line class="st4" x1="600.3" y1="170.6" x2="600.3" y2="265.7"/>
	<circle class="st3" cx="600.3" cy="311" r="19.5"/>
	<path class="st3" d="M642,163.4c3.9-1.2,6.4-3.9,6.4-7c0-3-2.5-5.7-6.4-7L422.4,82.5c-7.1-2.2-14.7-3.3-22.4-3.3
		s-15.4,1.1-22.4,3.3l-219.6,67c-3.9,1.2-6.4,3.9-6.4,7c0,3,2.5,5.7,6.4,7l101.6,31v85.9c0,44.4,15.1,87,42.5,120.1
		c13.2,15.8,28.3,28.5,45,37.4c17.8,9.5,36.1,14.3,54.6,14.3s36.9-4.8,54.6-14.3c25.1-13.5,46.8-35.2,62.5-62.7
		c16.4-28.5,25-61.3,25-94.8v-87L642,163.4z"/>
	<path class="st0" d="M406.2,421.4c-11.6,0-23.3-3.2-35-9.4c-18-9.6-34.4-26.2-46.1-46.7c-5.4-9.5-9.8-19.7-13-30.5
		c67.7-11.9,109.5-54.9,133.2-90c11.4,23.1,30.8,52,60.3,65.2c-3.5,27.8-14.7,54.3-31.7,74.8c-9.6,11.6-20.9,21-32.7,27.3
		C429.5,418.2,417.8,421.4,406.2,421.4z"/>
</g>
</svg>
