<?xml version="1.0" encoding="utf-8"?>
<!-- Generator: Adobe Illustrator 24.1.2, SVG Export Plug-In . SVG Version: 6.00 Build 0)  -->
<svg version="1.1" id="Layer_1" xmlns="http://www.w3.org/2000/svg" xmlns:xlink="http://www.w3.org/1999/xlink" x="0px" y="0px"
	 viewBox="0 0 800 900" style="enable-background:new 0 0 800 900;" xml:space="preserve">
<style type="text/css">
	.st0{fill:none;stroke:#3D3DB4;stroke-width:25;stroke-linecap:round;stroke-linejoin:round;stroke-miterlimit:10;}
	.st1{fill:none;stroke:#3D3DB4;stroke-width:25;stroke-linecap:round;stroke-linejoin:round;}
	.st2{fill:none;stroke:#3D3DB4;stroke-width:25;stroke-linecap:round;}
	.st3{fill:#3D3DB4;}
	.st4{fill:none;stroke:#FFFFFF;stroke-width:25;stroke-linecap:round;stroke-linejoin:round;stroke-miterlimit:10;}
	.st5{fill:#FFFFFF;}
</style>
<path class="st0" d="M384.7,95.5c-215,0-309.4,65.2-312.6,172.1c-2.2,74,39.1,104.3,116.8,104.3c19.8,0,2.2,63.5,165.3,63.5
	c48.5,0,37.5,93.9,191.9,93.9c69.7,0,106.5-84.4,106.5-84.4c57.4-2.1,90.2-55.4,90.2-94.4C742.8,228,616.1,95.5,384.7,95.5z"/>
<path class="st1" d="M377.6,214.6c-115,0-109.4-20.9-109.4-102.1"/>
<path class="st1" d="M170.8,217.3c0,57.3-1.6,58.4-95.2,58.4"/>
<path class="st1" d="M275.8,419.7c0-68.3,0.7-73.2,73.2-73.2"/>
<path class="st1" d="M740.2,357.9c-115.2,3-124.6-23.5-124.1-62.6"/>
<line class="st2" x1="525.3" y1="420.1" x2="525.3" y2="524"/>
<circle class="st3" cx="524.4" cy="411.2" r="30.6"/>
<circle class="st3" cx="388.4" cy="213.9" r="30.6"/>
<circle class="st3" cx="367.9" cy="348.7" r="30.6"/>
<circle class="st3" cx="170.7" cy="208.2" r="30.6"/>
<circle class="st3" cx="614.6" cy="274.5" r="30.6"/>
<path class="st3" d="M173.8,523.9h452.4c55.4,0,100.3,44.9,100.3,100.3v76.8c0,55.4-44.9,100.3-100.3,100.3H173.8
	c-55.4,0-100.3-44.9-100.3-100.3v-76.8C73.5,568.6,118.4,523.9,173.8,523.9z"/>
<line class="st4" x1="224" y1="662.8" x2="607.6" y2="662.8"/>
<circle class="st5" cx="191.2" cy="661.5" r="40.6"/>
<path class="st1" d="M492.8,261.7c0-59.2,36.4-101.2,132.1-100.6"/>
<circle class="st3" cx="492.2" cy="282.5" r="30.6"/>
</svg>
