<?xml version="1.0" encoding="utf-8"?>
<!-- Generator: Adobe Illustrator 24.1.2, SVG Export Plug-In . SVG Version: 6.00 Build 0)  -->
<svg version="1.1" id="Layer_1" xmlns="http://www.w3.org/2000/svg" xmlns:xlink="http://www.w3.org/1999/xlink" x="0px" y="0px"
	 viewBox="0 0 800 900" style="enable-background:new 0 0 800 900;" xml:space="preserve">
<style type="text/css">
	.st0{fill:none;stroke:#3D3DB4;stroke-width:25;stroke-miterlimit:10;}
	.st1{fill:none;stroke:#3D3DB4;stroke-width:25;stroke-linecap:round;stroke-linejoin:round;}
	.st2{fill:none;stroke:#3D3DB4;stroke-width:25;stroke-linecap:round;}
	.st3{fill:#00C4A1;}
	.st4{fill:#EEF0FC;stroke:#3D3DB4;stroke-width:25;}
</style>
<path class="st0" d="M381.2,72.8c-177,0-254.8,53.7-257.4,141.7c-1.8,60.9,32.2,85.9,96.2,85.9c16.3,0,1.8,52.3,136.1,52.3
	c39.9,0,49,77.3,176.1,77.3c61.7,0,101.7-69.5,101.7-69.5c37.9-1.8,42.2-45.6,42.2-77.7C676.1,181.9,571.7,72.8,381.2,72.8z"/>
<path class="st1" d="M433,170.9c-94.7,0-90.1-17.2-90.1-84.1"/>
<path class="st1" d="M458.7,299.6c0,52.4-4.2,52.9-102.6,52.9"/>
<path class="st1" d="M205.1,173.1c0,47.2-1.3,48.1-78.4,48.1"/>
<path class="st1" d="M226.7,298c0-56.2,0.6-60.3,60.3-60.3"/>
<path class="st1" d="M635.6,360.8c-64,0-75.8-3.4-75.8-54.8"/>
<line class="st2" x1="515.1" y1="378.4" x2="515.1" y2="489.6"/>
<circle class="st3" cx="514.4" cy="371.1" r="25.2"/>
<circle class="st3" cx="458.5" cy="290" r="25.2"/>
<circle class="st3" cx="441.9" cy="170.3" r="25.2"/>
<circle class="st3" cx="302.5" cy="239.6" r="25.2"/>
<circle class="st3" cx="205" cy="165.6" r="25.2"/>
<circle class="st3" cx="559.2" cy="293.3" r="25.2"/>
<path class="st4" d="M191.6,459.5h422.3c34.4,0,62.3,27.9,62.3,62.3v47.7c0,34.4-27.9,62.3-62.3,62.3H191.6
	c-34.4,0-62.3-27.9-62.3-62.3v-47.7C129.3,487.3,157.2,459.5,191.6,459.5z"/>
<line class="st2" x1="222.8" y1="550.8" x2="589.3" y2="550.8"/>
<circle class="st3" cx="202.4" cy="550" r="25.2"/>
<path class="st4" d="M191.6,655h422.3c34.4,0,62.3,27.9,62.3,62.3V765c0,34.4-27.9,62.3-62.3,62.3H191.6
	c-34.4,0-62.3-27.9-62.3-62.3v-47.7C129.3,682.8,157.2,655,191.6,655z"/>
<line class="st2" x1="222.8" y1="746.3" x2="589.3" y2="746.3"/>
<circle class="st3" cx="202.4" cy="745.5" r="25.2"/>
</svg>
