<?xml version="1.0" encoding="utf-8"?>
<!-- Generator: Adobe Illustrator 24.1.2, SVG Export Plug-In . SVG Version: 6.00 Build 0)  -->
<svg version="1.1" xmlns="http://www.w3.org/2000/svg" xmlns:xlink="http://www.w3.org/1999/xlink" x="0px" y="0px"
	 viewBox="0 0 800 800" style="enable-background:new 0 0 800 800;" xml:space="preserve">
<style type="text/css">
	.st1{fill:#3D3DB4;}
	.st2{display:inline;fill:#FFFFFF;}
	.st3{display:inline;fill:none;stroke:#3D3DB4;stroke-width:25;stroke-miterlimit:133.3333;}
	.st4{display:inline;fill:#FFFFFF;stroke:#3D3DB4;stroke-width:25;stroke-miterlimit:133.3333;}
	.st5{display:inline;}
	.st6{fill:#FF5C5C;stroke:#3D3DB4;stroke-width:25;stroke-linecap:round;stroke-miterlimit:10;}
	.st7{fill:none;stroke:#3D3DB4;stroke-width:25;stroke-linecap:round;stroke-linejoin:round;stroke-miterlimit:10;}
	.st8{fill:#FF5C5C;stroke:#3D3DB4;stroke-width:25;stroke-linecap:round;stroke-linejoin:bevel;stroke-miterlimit:10;}
	.st9{fill:#FF5C5C;stroke:#3D3DB4;stroke-width:25;stroke-linecap:round;stroke-linejoin:round;stroke-miterlimit:10;}
	.st10{fill:#FF5C5C;stroke:#000000;stroke-width:25;stroke-linecap:round;stroke-linejoin:round;stroke-miterlimit:10;}
	.st11{fill:none;stroke:#000000;stroke-width:25;stroke-linecap:round;stroke-linejoin:round;stroke-miterlimit:10;}
	.st12{fill:#FF5C5C;stroke:#3D3DB4;stroke-width:22;}
	.st13{fill:none;stroke:#3D3DB4;stroke-width:22;stroke-linecap:round;}
	.st14{fill:#3D3DB4;stroke:#3D3DB4;stroke-width:22;}
	.st15{fill:none;stroke:#FF5C5C;stroke-width:8;stroke-linecap:round;}
	.st16{display:inline;fill:#FF5C5C;}
	.st17{fill:none;stroke:#3D3DB4;stroke-width:25;stroke-linecap:round;stroke-miterlimit:10;}
	.st18{fill:none;stroke:#3D3DB4;stroke-width:25;stroke-linecap:round;stroke-miterlimit:2;}
	.st19{display:inline;fill:#FFFFFF;stroke:#3D3DB4;stroke-width:22;}
	.st20{display:inline;fill:none;stroke:#3D3DB4;stroke-width:22;stroke-linecap:round;}
	.st21{display:inline;fill:#3D3DB4;}
	.st22{fill:#FFFFFF;stroke:#3D3DB4;stroke-width:35;}
	.st23{fill:#FFFFFF;stroke:#3D3DB4;stroke-width:20;}
	.st24{fill:none;stroke:#3D3DB4;stroke-width:20;stroke-linecap:round;}
	.st25{fill:url(#SVGID_1_);}
	.st26{display:inline;fill:none;stroke:#3D3DB4;stroke-width:20;stroke-linecap:round;stroke-miterlimit:10;}
	.st27{fill:none;stroke:#3D3DB4;stroke-width:20;stroke-linecap:round;stroke-miterlimit:10;}
	.st28{fill:#FFFFFF;}
	.st29{fill:none;stroke:#000000;stroke-miterlimit:10;}
	.st30{fill:#FF5C5C;stroke:#000000;stroke-miterlimit:10;}
	.st31{fill:none;stroke:#000000;stroke-width:10;stroke-miterlimit:10;}
	.st32{fill:#FF5C5C;}
</style>


<g id="Database_Outline">
	<path class="st22" d="M399.9,391.2c-130.3,0-235.9,52.9-235.9,118h0v147.4c0,65.1,105.6,118,235.9,118s235.9-52.9,235.9-118V509.2
		C635.8,444.2,530.2,391.2,399.9,391.2z"/>
	<path class="st23" d="M635.8,509.2c0,65.1-105.6,118-235.9,118S164,574.3,164,509.2s105.6-118,235.9-118S635.8,444.2,635.8,509.2z"
		/>
	<path class="st1" d="M491.4,501.3c0,26.1-42.3,47.3-94.5,47.3s-94.5-21.2-94.5-47.3s42.3-47.3,94.5-47.3S491.4,475.2,491.4,501.3z"
		/>
	<path class="st24" d="M635.8,582.9c0,65.1-105.6,118-235.9,118S164,648,164,582.9"/>
</g>

<g id="Layer_9">
	<g>
		<g>
			<path class="st28" d="M402.2,509.5c-25.4,0-50.4-6.6-74.5-19.5c-22.2-11.9-42.3-28.6-59.8-49.6c-35.8-43.2-55.5-98.8-55.6-156.7
				v-91.2l-110.8-33.8c-12.2-3.8-20.1-13.6-20.1-25.2c0-11.5,7.9-21.4,20-25.1l266.2-81.2c10.3-3.1,21.1-4.7,32.3-4.7
				c11.2,0,22,1.6,32.3,4.7l266.2,81.2c12,3.7,20.1,13.8,20.1,25.2c0,11.4-8,21.5-20,25.2l-13.7,4.2v71.8c9,6.3,14.8,16.7,14.8,28.3
				c0,9.6-3.9,18.4-10.5,24.8l11.2,74.1c1.1,7.2-1,14.5-5.7,20c-4.7,5.5-11.6,8.7-18.9,8.7H627c-7.2,0-14.1-3.1-18.8-8.6
				c0,0-0.1-0.1-0.1-0.1c-4.7-5.5-6.8-12.7-5.7-19.8l11.2-74.2c-6.6-6.3-10.5-15.1-10.5-24.8c0-11.6,5.8-22.1,14.8-28.3v-51.4
				l-26,7.9v92.5c0,43.6-11.3,86.3-32.6,123.6c-20.8,36.2-49.4,64.8-82.7,82.7C452.6,502.9,427.5,509.5,402.2,509.5z"/>
			<path class="st1" d="M400,40c9.4,0,18.6,1.3,27.2,3.9l266.2,81.2c4.7,1.4,7.7,4.7,7.7,8.4c0,3.7-3,7-7.7,8.4l-26,7.9v96.2
				c8.4,1.1,14.8,8.2,14.8,16.8c0,7.5-4.9,14-12,16.2l12.9,85.3c0.3,2.1-0.3,4.3-1.7,5.9c-1.4,1.6-3.4,2.6-5.6,2.6H627
				c-2.1,0-4.2-0.9-5.6-2.6c-1.4-1.6-2-3.8-1.7-5.9l12.9-85.3c-7-2.2-12-8.7-12-16.2c0-8.6,6.5-15.8,14.8-16.8v-86.5l-61,18.6v105.4
				c0,40.5-10.5,80.3-30.3,114.9c-19.1,33.4-45.3,59.6-75.8,76c-21.5,11.5-43.8,17.4-66.2,17.4c-22.5,0-44.7-5.9-66.2-17.4
				c-20.3-10.9-38.6-26.1-54.6-45.3c-33.2-40-51.5-91.7-51.5-145.6V179.6L106.7,142c-4.7-1.4-7.7-4.7-7.7-8.4c0-3.7,3-7,7.7-8.4
				L372.8,44C381.4,41.3,390.6,40,400,40 M400,5c-12.9,0-25.5,1.8-37.4,5.5L96.5,91.7c0,0-0.1,0-0.1,0C77,97.7,64,114.5,64,133.6
				c0,19.1,13,35.9,32.4,41.9c0,0,0.1,0,0.1,0l98.4,30v78.2c0,62,21.2,121.6,59.6,167.9c18.9,22.7,40.7,40.8,65,53.8
				c26.6,14.3,54.5,21.5,82.8,21.5c28.3,0,56.1-7.3,82.8-21.6c36.2-19.5,67.2-50.4,89.6-89.4c5.6-9.8,10.6-20.1,14.9-30.5
				c1.4,2.7,3.2,5.3,5.3,7.8c0.1,0.1,0.1,0.1,0.2,0.2c8.1,9.3,19.7,14.7,32.1,14.7h48.9c12.3,0,24-5.4,32.1-14.7
				c8-9.3,11.6-21.7,9.8-33.9c0,0,0-0.1,0-0.1l-10.1-66.4c6.2-8.8,9.5-19.1,9.5-29.9c0-14-5.6-26.9-14.8-36.3v-50.8l1.2-0.4
				c0,0,0.1,0,0.1,0c19.4-6,32.4-22.8,32.4-41.9c0-19.1-13-35.9-32.4-41.9c0,0,0,0-0.1,0L437.4,10.5C425.5,6.8,412.9,5,400,5L400,5z
				"/>
		</g>
	</g>
	<path class="st1" d="M404.9,441.5c-14,0-28.3-3.8-42.4-11.4c-21.8-11.7-41.7-31.8-55.9-56.6c-6.5-11.4-11.9-23.9-15.8-37
		c82.1-14.5,132.8-66.6,161.4-109.1c13.8,28,37.3,63,73.1,79.1c-4.2,33.7-17.8,65.8-38.5,90.6c-11.6,14-25.3,25.5-39.6,33.1
		C433.2,437.7,418.9,441.5,404.9,441.5z"/>
</g>

</svg>
