<?xml version="1.0" encoding="utf-8"?>
<!-- Generator: Adobe Illustrator 24.1.2, SVG Export Plug-In . SVG Version: 6.00 Build 0)  -->
<svg version="1.1" id="Layer_1" xmlns="http://www.w3.org/2000/svg" xmlns:xlink="http://www.w3.org/1999/xlink" x="0px" y="0px"
	 viewBox="0 0 179.8 74.8" style="enable-background:new 0 0 179.8 74.8;" xml:space="preserve">
<style type="text/css">
	.st0{fill:#02508E;}
	.st1{fill:#FFFFFF;}
</style>
<g id="レイヤー_1-2">
	<path class="st0" d="M19.9,11c0-0.7,0.4-1.4,1-1.7l15.6-9c0.6-0.3,1.4-0.3,2,0l15.6,9c0.6,0.4,1,1,1,1.7v18c0,0.7-0.4,1.3-1,1.7
		l-15.6,9c-0.6,0.3-1.4,0.3-2,0l-15.6-9c-0.6-0.4-1-1-1-1.7L19.9,11z"/>
	<path class="st0" d="M0,45.7C0,45,0.4,44.4,1,44l15.6-9c0.6-0.3,1.4-0.3,2,0l15.6,9c0.6,0.4,1,1,1,1.7v18c0,0.7-0.4,1.4-1,1.7
		l-15.6,9c-0.6,0.3-1.4,0.3-2,0L1,65.5c-0.6-0.4-1-1-1-1.7V45.7z"/>
	<path class="st0" d="M40.7,45.6c0-0.7,0.4-1.4,1-1.7l15.6-9c0.6-0.3,1.4-0.3,2,0l15.6,9c0.6,0.4,1,1,1,1.7v18c0,0.7-0.4,1.4-1,1.7
		l-15.6,9c-0.6,0.3-1.4,0.3-2,0l-15.6-9c-0.6-0.4-1-1-1-1.7V45.6z"/>
	<path class="st1" d="M75.9,63.2H54.6c-2.5,0-4.4-2-4.4-4.5v-7.8c0-2.5,2-4.4,4.4-4.4h21.3v3.7H54.6c-0.4,0-0.8,0.3-0.8,0.8v7.8
		c0,0.4,0.3,0.8,0.8,0.8h21.3V63.2z"/>
	<polygon class="st1" points="55.1,13.7 20,13.7 20,17.4 42.3,17.4 42.3,37.5 46,35.5 46,17.4 55.1,17.4 	"/>
	<path class="st1" d="M35.2,63.5H15.2c-2.5,0-4.5-2-4.4-4.5c0,0,0,0,0,0V38.3l3.7-2V59c0,0.4,0.3,0.8,0.8,0.8h19.9V63.5z"/>
	<path class="st0" d="M91,10.1h6.8v1.6h-2.7v10.4h-1.5V11.7H91V10.1z"/>
	<path class="st0" d="M99.5,16c0-1.7,0.6-3.3,1.8-4.5c1.1-1.2,2.7-1.9,4.4-1.9c1.6,0,3.2,0.7,4.3,1.9c1.2,1.2,1.8,2.8,1.8,4.4
		c0,1.7-0.6,3.4-1.8,4.6c-2.3,2.4-6.1,2.5-8.5,0.2c-0.1-0.1-0.2-0.2-0.2-0.2C100.1,19.4,99.5,17.7,99.5,16z M110.2,16.1
		c0-1.2-0.5-2.5-1.3-3.3c-0.9-0.9-2-1.4-3.3-1.4c-1.2,0-2.4,0.5-3.2,1.4c-0.9,0.9-1.3,2.1-1.3,3.3c0,1.2,0.5,2.5,1.3,3.3
		c0.9,0.9,2.1,1.4,3.3,1.4c1.2,0,2.3-0.5,3.1-1.4C109.7,18.5,110.2,17.3,110.2,16.1L110.2,16.1z"/>
	<path class="st0" d="M113.6,10.1h1.7l2.8,4.8l2.7-4.8h1.7l-3.7,6.5v5.5h-1.5v-5.5L113.6,10.1z"/>
	<path class="st0" d="M124.1,16c0-1.7,0.6-3.3,1.8-4.5c1.1-1.2,2.7-1.9,4.4-1.9c1.6,0,3.2,0.7,4.3,1.9c1.2,1.2,1.8,2.8,1.8,4.4
		c0,1.7-0.6,3.4-1.8,4.6c-2.3,2.4-6.1,2.5-8.5,0.2c-0.1-0.1-0.2-0.2-0.2-0.2C124.7,19.4,124.1,17.7,124.1,16z M134.8,16.1
		c0-1.2-0.5-2.5-1.3-3.3c-0.9-0.9-2-1.4-3.3-1.4c-1.2,0-2.4,0.5-3.2,1.4c-0.9,0.9-1.3,2.1-1.3,3.3c0,1.3,0.5,2.5,1.4,3.3
		c0.9,0.9,2.1,1.4,3.3,1.4c1.2,0,2.3-0.5,3.1-1.4C134.3,18.5,134.8,17.3,134.8,16.1L134.8,16.1z"/>
	<path class="st0" d="M138.4,16c0-1.7,0.6-3.3,1.8-4.5c1.1-1.2,2.7-1.9,4.4-1.9c1.6,0,3.2,0.7,4.3,1.9c1.2,1.2,1.8,2.8,1.8,4.4
		c0,1.7-0.6,3.4-1.8,4.6c-2.3,2.4-6.1,2.5-8.5,0.2c-0.1-0.1-0.2-0.2-0.2-0.2C139,19.4,138.3,17.7,138.4,16z M149,16.1
		c0-1.2-0.4-2.5-1.3-3.3c-0.8-0.9-2-1.4-3.3-1.4c-1.2,0-2.4,0.5-3.2,1.4c-0.8,0.9-1.3,2.1-1.3,3.3c0,1.2,0.5,2.5,1.4,3.3
		c0.9,0.9,2.1,1.4,3.3,1.4c1.2,0,2.3-0.5,3.1-1.4C148.6,18.5,149,17.3,149,16.1L149,16.1z"/>
	<path class="st0" d="M153.1,10.1h1.5v4.9l4.7-4.9h2.1l-5.4,5.6l5.4,6.4h-1.9l-4.9-5.9v5.9h-1.5V10.1z"/>
	<path class="st0" d="M167.6,9.6l5.3,12.5h-1.6L170,19h-4.7l-1.3,3.1h-1.6L167.6,9.6z M167.6,13.3l-1.8,4.3h3.6L167.6,13.3z"/>
	<path class="st0" d="M91.9,34h1.5v10.4H97V46h-5.1V34z"/>
	<path class="st0" d="M103.2,33.6l5.3,12.4h-1.6l-1.3-3h-4.7l-1.3,3H98L103.2,33.6z M103.2,37.3l-1.8,4.3h3.6L103.2,37.3z"/>
	<path class="st0" d="M110.2,33.5l8.3,9.1V34h1.6v12.6l-8.2-9.1V46h-1.5L110.2,33.5z"/>
	<path class="st0" d="M133.5,36l-1.1,1.2c-1-1.1-2.5-1.8-4-1.8c-1.2,0-2.4,0.5-3.3,1.3c-1.7,1.9-1.7,4.7,0,6.6
		c0.9,1,2.2,1.5,3.5,1.4c2,0.2,3.8-1.2,4.2-3.1h-3V40h4.8c0,0.7,0,1.3-0.2,2c-0.1,0.6-0.3,1.1-0.6,1.6c-0.3,0.6-0.8,1.1-1.3,1.6
		c-0.5,0.4-1.1,0.8-1.7,1c-0.7,0.2-1.4,0.3-2.2,0.3c-1.8,0.1-3.5-0.7-4.6-2c-1.1-1.2-1.7-2.8-1.7-4.5c0-1.7,0.6-3.3,1.8-4.5
		c1.1-1.2,2.6-1.9,4.3-1.9C130.3,33.6,132.2,34.4,133.5,36L133.5,36z"/>
	<path class="st0" d="M136.9,34h1.5v7.4c-0.1,0.9,0.2,1.8,0.7,2.5c0.5,0.6,1.3,0.9,2.1,0.9c0.8,0,1.5-0.3,2.1-0.8
		c0.5-0.7,0.8-1.5,0.7-2.3V34h1.5v7.5c0.1,1.3-0.4,2.5-1.2,3.5c-0.8,0.9-1.9,1.4-3.1,1.3c-1.2,0-2.4-0.4-3.2-1.3
		c-0.9-1.1-1.3-2.6-1.2-4L136.9,34z"/>
	<path class="st0" d="M152.4,33.6l5.3,12.4H156l-1.3-3H150l-1.3,3h-1.6L152.4,33.6z M152.4,37.3l-1.8,4.3h3.6L152.4,37.3z"/>
	<path class="st0" d="M170.3,36l-1.1,1.2c-1-1.2-2.5-1.8-4-1.8c-1.2,0-2.4,0.5-3.3,1.3c-1.7,1.9-1.7,4.7,0,6.6
		c0.9,1,2.2,1.5,3.5,1.4c2,0.2,3.8-1.2,4.2-3.1h-3V40h4.8c0,0.7,0,1.3-0.1,2c-0.1,0.6-0.4,1.1-0.6,1.6c-0.3,0.6-0.8,1.1-1.3,1.6
		c-0.5,0.4-1.1,0.8-1.7,1c-0.7,0.2-1.4,0.3-2.2,0.3c-1.8,0.1-3.5-0.7-4.6-2c-1.1-1.2-1.7-2.8-1.7-4.5c0-1.7,0.6-3.3,1.8-4.5
		c1.1-1.2,2.6-1.9,4.2-1.8c0.9,0,1.9,0.2,2.7,0.5C168.7,34.6,169.5,35.2,170.3,36z"/>
	<path class="st0" d="M173.6,34h6.2v1.6h-4.7v3h4.7v1.6h-4.7v4.1h4.7V46h-6.2V34z"/>
	<path class="st0" d="M100.7,58.4v1.9c-1-0.6-2.1-0.9-3.3-1c-1.2,0-2.4,0.5-3.3,1.3c-0.9,0.9-1.4,2.1-1.3,3.4c0,1.3,0.5,2.5,1.4,3.3
		c0.9,0.9,2.1,1.4,3.4,1.3c1.1,0,2.2-0.4,3.2-1v1.9c-1,0.6-2.1,0.9-3.3,0.9c-1.7,0-3.3-0.7-4.4-1.9c-1.2-1.2-1.9-2.8-1.9-4.5
		c0-1.7,0.6-3.3,1.8-4.5c1.1-1.2,2.7-1.9,4.3-1.9C98.5,57.7,99.6,57.9,100.7,58.4z"/>
	<path class="st0" d="M103.2,58h6.2v1.6h-4.7v3h4.7v1.6h-4.7v4.1h4.7V70h-6.2V58z"/>
	<path class="st0" d="M111.8,57.5l8.2,9.1V58h1.5v12.6l-8.2-9.1V70h-1.5V57.5z"/>
	<path class="st0" d="M124,58h6.8v1.6h-2.7V70h-1.5V59.6H124V58z"/>
	<path class="st0" d="M133.5,58h2.5c1.1,0,2.1,0.3,2.9,1c0.7,0.6,1.1,1.5,1.1,2.4c0,0.8-0.3,1.5-0.7,2.1c-0.6,0.7-1.4,1.1-2.3,1.3
		l3.3,5.1h-1.8l-3.1-4.9h-0.3V70h-1.5L133.5,58z M135.1,59.5v4.2c2.2,0,3.4-0.7,3.4-2.1c0-0.4-0.1-0.9-0.4-1.3
		c-0.3-0.3-0.6-0.6-1.1-0.7C136.3,59.5,135.7,59.4,135.1,59.5z"/>
	<path class="st0" d="M142.9,58h6.2v1.6h-4.7v3h4.7v1.6h-4.7v4.1h4.7V70h-6.2V58z"/>
</g>
</svg>
